# xmcd CD database file
#
# Track frame offsets:
#	150
#	11358
#	25832
#	43753
#	60624
#	76018
#	96946
#	112289
#	125698
#	143397
#	157739
#	173317
#	191319
#	208158
#	223110
#	240088
#	259243
#	274325
#	294046
#	310064
#
# Disc length: 4315 seconds
#
# Revision: 0
# Processed by: cddbd v1.5PL3 Copyright (c) Steve Scherf et al.
# Submitted via: CDex 1.51
#
DISCID=0610d914
DTITLE=鋼琴音樂 - 音樂情書 Vol 6
DYEAR=2003
DGENRE=Country
TTITLE0=遇見
TTITLE1=兩個人的幸運
TTITLE2=亂世佳人
TTITLE3=十面埋伏(陳奕信版)
TTITLE4=邊走邊愛
TTITLE5=玻璃之情
TTITLE6=飛女正傳
TTITLE7=一步一生
TTITLE8=假如愛有天意
TTITLE9=轉
TTITLE10=想得太遠
TTITLE11=七友
TTITLE12=落錯車
TTITLE13=她比我醜
TTITLE14=愛很簡單
TTITLE15=妳聽得到
TTITLE16=三角誌
TTITLE17=向左愛向右愛
TTITLE18=愛不釋手
TTITLE19=還你門匙
EXTD=YEAR: 2003
EXTT0=
EXTT1=
EXTT2=
EXTT3=
EXTT4=
EXTT5=
EXTT6=
EXTT7=
EXTT8=
EXTT9=
EXTT10=
EXTT11=
EXTT12=
EXTT13=
EXTT14=
EXTT15=
EXTT16=
EXTT17=
EXTT18=
EXTT19=
PLAYORDER=
